<?xml version="1.0" encoding="utf-8"?>
<svg version="1.1" id="logo" xmlns="http://www.w3.org/2000/svg" x="0px" y="0px"
	 viewBox="0 0 556.29 241.62" xml:space="preserve">
<style type="text/css">
	.st0{fill:#A67C52;}
	.st1{fill:#CCCCCC;}
	.st2{fill:#00A99D;}
	.st3{fill:none;stroke:#A67C52;stroke-width:4.7269;stroke-miterlimit:10;}
	.st4{clip-path:url(#SVGID_2_);}
</style>
<rect width="556.29" height="241.62" style="fill:none"/>
<g>
	<path class="st0" d="M211.49,211.98c-41.03-12.84-78.33-14.17-112.08-14.25c-12.9,0-25.88,0.71-37.48,2.12
		c-4.85,20.09-15.67,28.28-27.52,31.19c-16.45,4.02-28.47-8.27-14.8-20.72c7.7-7.01,19.04-10.94,35.4-13.47
		c0.95-6.14,1.47-13.23,1.47-21.42v-6.3l-27.44-1.34v16.86c0,1.34-8.14,2.83-8.14,1.18v-18.43c-2.94-0.08-5.28-0.15-6.49-0.15
		c-0.78,0,0-2.52,0.78-2.52c0.26,0,2.42-0.08,5.71-0.23v-50.01c0-1.34,8.14-4.97,8.14-3.23v52.85c8.31-0.32,18.95-0.87,27.44-1.18
		c-0.09-17.96-0.26-48.44-0.26-48.68c0-1.34,8.14-4.88,8.14-3.23c0,0,0.09,33.16,0.09,51.51c3.72-0.16,6.23-0.24,6.58-0.24
		c1.9,0-2.08,7.4-3.55,7.4c0,0-1.13-0.08-2.95-0.15v4.8c0,8.19-0.69,15.28-1.82,21.42c11.16-1.34,24.41-2.36,39.9-3.31
		c34.28-2.13,73.14-2.76,112.95,16.3C217.63,209.7,213.82,212.69,211.49,211.98z M54.31,200.88c-15.15,2.28-27.09,5.83-32.2,10.48
		c-10.91,9.92-0.17,20.64,13.5,17.33C43.41,226.79,50.67,218.37,54.31,200.88z"/>
	<path class="st0" d="M123.07,162.61c-3.81,4.33-8.74,7.24-13.85,8.58c-3.72,9.77-12.03,14.49-18.78,14.49
		c-8.57,0-14.28-6.14-14.28-19.85c0-9.45,3.03-15.83,7.18-20c1.47-5.04,5.02-9.14,10.82-10.56c9.78-2.44,17.14,7.4,17.14,24.18
		c0,3.62-0.52,6.77-1.38,9.61c4.24-1.26,8.31-3.71,11.94-7.72C123.24,159.69,124.62,160.95,123.07,162.61z M102.12,171.9
		c-4.5-0.16-8.92-1.66-12.55-4.57c-2.16-1.81-3.89-4.09-5.11-6.69c-0.09,1.26-0.09,2.68-0.09,4.09c0,11.5,2.08,18.82,7.79,18.82
		C97.27,183.55,100.56,179.46,102.12,171.9z M86.11,143.46c3.03-2.28,6.49-3.55,9.61-4.25c2.08-0.39,1.99,1.66-0.69,2.2
		c-4.07,0.87-8.14,5.43-9.78,13.94c0.86,4.25,2.94,8.19,5.97,10.64c2.94,2.44,6.92,3.86,11.25,4.01c0.43-2.75,0.61-5.9,0.61-9.45
		c0-17.09-1.65-25.05-9.96-23C89.74,138.34,87.41,140.55,86.11,143.46z"/>
	<path class="st0" d="M165.5,162.61c-3.81,4.33-8.74,7.24-13.85,8.58c-3.72,9.77-12.03,14.49-18.78,14.49
		c-8.57,0-14.28-6.14-14.28-19.85c0-9.45,3.03-15.83,7.18-20c1.47-5.04,5.02-9.14,10.82-10.56c9.78-2.44,17.14,7.4,17.14,24.18
		c0,3.62-0.52,6.77-1.38,9.61c4.24-1.26,8.31-3.71,11.94-7.72C165.67,159.69,167.05,160.95,165.5,162.61z M144.55,171.9
		c-4.5-0.16-8.92-1.66-12.55-4.57c-2.16-1.81-3.89-4.09-5.11-6.69c-0.09,1.26-0.09,2.68-0.09,4.09c0,11.5,2.08,18.82,7.79,18.82
		C139.7,183.55,142.99,179.46,144.55,171.9z M128.54,143.46c3.03-2.28,6.49-3.55,9.61-4.25c2.08-0.39,1.99,1.66-0.69,2.2
		c-4.07,0.87-8.14,5.43-9.78,13.94c0.86,4.25,2.94,8.19,5.97,10.64c2.94,2.44,6.92,3.86,11.25,4.01c0.43-2.75,0.61-5.9,0.61-9.45
		c0-17.09-1.65-25.05-9.96-23C132.18,138.34,129.84,140.55,128.54,143.46z"/>
	<path class="st0" d="M206.81,168.6c-0.21-0.07-0.36-0.25-0.55-0.35c-2.57,7.48-6.08,15.38-11.31,15.38
		c-3.46,0-9.69-9.21-12.55-15.98c8.83-3.87,15.41-11.11,15.93-18.91c0.52-7.4-6.75-10.4-13.33-9.21
		c-7.71,1.26-12.98,8.82-15.67,17.8v-21.89c16.36-0.24,30.99-3.86,41.72-12.84c11.68-9.69,17.14-32.13,0.69-39.14
		c-21.72-9.37-48.9,7.24-50.46,49.15c-15.84-0.63-32.46-3.71-46.48-7.17c-1.04-0.31-3.03,1.66-1.38,2.05
		c16.01,4.02,32.46,7.17,47.78,7.8v1.26c0,4.65-0.09,44.89-0.09,48.52c0,1.65,8.14,0.15,8.14-1.18v-13.71
		c0.34-11.42,6.84-26.7,14.02-28.35c4.24-1.1,7.79,2.05,6.92,9.45c-0.78,6.85-5.63,15.36-14.8,17.25c-0.87,0.16-1.38,0.87-1.13,1.26
		c3.11,8.74,10.3,15.99,19.3,15.99c8.37,0,12.05-8.94,14.56-16.86C207.67,168.86,207.21,168.82,206.81,168.6z M209.75,84.7
		c14.71,6.3,10.82,26.71-1.04,36.55c-9.61,7.96-23.8,11.11-39.3,11.42C170.28,93.14,191.05,76.67,209.75,84.7z"/>
	<path class="st0" d="M238.76,174.02c-0.86,8.11-11.51,11.89-20.42,11.5c-10.82-0.55-15.58-7.72-14.63-14.33
		c1.12-7.95,14.54-3.54,9.17,0.79c-2.77,2.21-3.46,4.49-3.2,6.22c0.52,3,3.9,5.12,10.04,5.43c5.8,0.24,14.89-3.15,15.49-8.82
		c0.69-6.38-13.07-9.13-16.01-10.08c-9.95-3.23-14.02-8.98-11.42-16.54c2.34-6.54,9.17-9.14,17.57-9.14
		c9.52,0,13.5,5.83,12.98,11.18c-0.78,6.62-11.86,3.63-7.53-0.39c1.64-1.5,1.9-3.54,1.64-5.04c-0.34-2.2-3.55-3.78-8.31-3.78
		c-5.36,0-11.42,2.44-12.72,6.22c-1.9,5.35,2.86,7.64,11.94,10.64C233.74,161.26,239.8,164.89,238.76,174.02z"/>
	<path class="st0" d="M238.99,226.84c-9.93-6.21-14.45-8.56-29.2-15.39c-1.13-0.52,4.04-3.52,5.28-2.83
		c0.08,0.04,13.27,5.99,23.49,13.05L238.99,226.84z"/>
	<path class="st0" d="M238.04,223.88l-1.08,2.54c-1.44-0.53-1.99-2.03-1.44-3.56c0.8-2.24,2.83-2,3.87-1.83l-0.35,0.87"/>
	<path class="st0" d="M379.43,163.9c-3.03,9.77-7.1,21.82-17.05,22.77c-10.21,0.94-16.19-2.29-20.6-21.42
		c-4.85-20.8-12.2-24.42-23.98-12.92v32.37c0,1.34-8.13,2.83-8.13,1.18v-71.36c0-1.34,8.13-4.97,8.13-3.31v37.33
		c6.23-8.59,16.36-21.34,18.52-24.02c5.63-6.93,12.81-14.18,19.82-14.02c3.63,0,7.62,2.36,6.58,5.99c-1.13,3.62-6.32,4.49-8.48,2.52
		c-3.55-3.31-7.53-0.87-13.76,5.04c-2.34,2.28-12.03,14.1-18.87,23.08c13.5-9.85,23.46-3.08,27.52,14.41
		c4.24,18.19,9.44,23.31,14.28,22.92c6.23-0.63,11.25-11.58,14.28-21.26C378.4,161.15,380.13,161.78,379.43,163.9z"/>
	<path class="st0" d="M436.59,193.28c-1.9,5.51-7.7,11.19-14.54,11.19c-12.03,0-20.17-5.36-20.17-42.46
		c0-13.94,0.78-20.32-3.98-20.32c-6.23,0-13.16,13.07-13.59,23.39v18.51c0,1.34-8.22,2.84-8.22,1.18v-41.51
		c0-1.34,8.22-4.88,8.22-3.23v14.49c2.86-8.27,8.57-14.96,15.23-14.96c8.05,0,10.39,4.41,10.39,20.24
		c0,36.07,6.84,42.53,13.41,42.53c4.59,0,9.26-4.49,10.99-9.13C435.73,189.5,437.89,189.42,436.59,193.28z"/>
	<path class="st0" d="M467.17,162.65c-3.81,4.33-8.74,7.24-13.85,8.58c-3.72,9.77-12.03,14.49-18.78,14.49
		c-8.57,0-14.28-6.14-14.28-19.85c0-9.45,3.03-15.83,7.18-20c1.47-5.04,5.02-9.14,10.82-10.56c9.78-2.44,17.14,7.4,17.14,24.18
		c0,3.62-0.52,6.77-1.38,9.61c4.24-1.26,8.31-3.71,11.94-7.72C467.34,159.73,468.73,160.99,467.17,162.65z M446.22,171.94
		c-4.5-0.16-8.92-1.66-12.55-4.57c-2.16-1.81-3.89-4.09-5.11-6.69c-0.09,1.26-0.09,2.68-0.09,4.09c0,11.5,2.08,18.82,7.79,18.82
		C441.38,183.59,444.67,179.5,446.22,171.94z M430.21,143.51c3.03-2.28,6.49-3.55,9.61-4.25c2.08-0.39,1.99,1.66-0.69,2.2
		c-4.07,0.87-8.14,5.43-9.78,13.94c0.86,4.25,2.94,8.19,5.97,10.64c2.94,2.44,6.92,3.86,11.25,4.01c0.43-2.75,0.61-5.9,0.61-9.45
		c0-17.09-1.65-25.05-9.96-23C433.85,138.39,431.51,140.59,430.21,143.51z"/>
	<path class="st0" d="M543.62,116.41c-9.09,8.35-33.15,13.63-68.55,14.65v-12.52c0-1.65-8.14,1.97-8.14,3.31v9.37
		c-10.99,0.07-22.94-0.16-35.75-0.87c-1.04,0-2.51,2.2-0.78,2.28c13.33,0.71,25.53,1.02,36.53,1.02v22.13
		c0,19.14,1.73,29.93,14.11,29.93c6.86,0,11.88-7.97,15.1-15.52c-0.03-0.02-0.07-0.01-0.11-0.02c-0.54-0.18-1.01-0.48-1.41-0.91
		c-0.03-0.03-0.05-0.07-0.07-0.11c-0.03,0.01-0.07,0.01-0.1,0.01c-2.98,6.86-7.46,14.41-11.77,14.41c-6.15,0-7.62-11.89-7.62-28.9
		v-21.11c38.08-0.79,61.02-6.3,71.4-15.83C549.5,114.92,546.99,113.42,543.62,116.41z"/>
	<path class="st0" d="M528.87,174.07c-0.86,8.11-11.51,11.89-20.42,11.5c-10.82-0.55-15.58-7.72-14.63-14.33
		c1.12-7.95,14.54-3.54,9.17,0.79c-2.77,2.21-3.46,4.49-3.2,6.22c0.52,3,3.9,5.12,10.04,5.43c5.8,0.24,14.89-3.15,15.49-8.82
		c0.69-6.38-13.07-9.13-16.01-10.08c-9.95-3.23-14.02-8.98-11.42-16.54c2.34-6.54,9.17-9.14,17.57-9.14
		c9.52,0,13.5,5.83,12.98,11.18c-0.78,6.62-11.86,3.63-7.53-0.39c1.64-1.5,1.9-3.54,1.64-5.04c-0.34-2.2-3.55-3.78-8.31-3.78
		c-5.37,0-11.42,2.44-12.72,6.22c-1.9,5.35,2.86,7.64,11.94,10.64C523.85,161.31,529.91,164.93,528.87,174.07z"/>
	<g>
		<path class="st1" d="M227.57,215.97c0.23-0.29,3.45-1.84,3.46-0.68c0.02,1.97-2.27,5.82-0.24,7.15c0.37,0.24,0.66,0.7,1.09,0.76
			c2.02,0.31,4.05-0.83,5.35-2.41c2.34-2.83,4.16-7.27,5.21-10.76c1.81-6.04,3.49-12.11,5.76-17.98c2.05-5.3,4.89-10.02,6.82-15.36
			c2.07-5.72,3.87-11.49,7.32-16.5c0.83-1.2,1.9-2.54,3.37-2.51c1.18,0.02,2.23,1.14,2.17,2.33c-0.03,0.59-0.29,1.15-0.55,1.69
			c-4.07,8.44-8.77,16.3-13.14,24.59c-3.58,6.78-6.16,14.47-7.89,21.94c-1.21,5.23-2.04,10.71-4.95,15.22
			c-2.08,3.22-5.03,5.88-8.12,8.12c-2.2,1.6-6.15,5.21-8.82,5.56c-0.73-3.17-0.27-7.87-0.03-11.14
			C224.64,222.49,225.37,218.8,227.57,215.97z"/>
		<path class="st2" d="M267.07,158.83c-0.2-0.29-0.49-0.47-0.9-0.48c-1.55-0.03-3.11,0.62-4.18,1.74c0.06-0.06-0.4-3.4-0.28-3.94
			c0.25-1.17,1-2.33,1.44-3.45c3.68-9.42,7.36-18.84,11.04-28.26c3.34-8.56,6.69-17.12,10.16-25.63c4.02-9.89,7.77-20.3,12.84-29.71
			c4.27-7.93,8.82-15.53,13.52-23.28c3.43-5.66,6.17-11.7,9.39-17.47c3.27-5.86,7.61-10.12,11.53-15.37
			c1.91-2.56,5.75-5.92,9.06-3.41c2.31,1.76,1.98,5.28,1.31,8.11c-2.74,11.45-7.3,22.37-10.76,33.62
			c-1.61,5.24-2.98,10.56-5.14,15.6c-1.39,3.26-3.1,6.36-4.81,9.47c-13.87,25.21-26.79,50.76-41.86,75.37
			c-2.97,4.85-6.4,10.22-12.2,11.67C267.19,163.42,267.96,160.1,267.07,158.83z"/>
		<g>
			<g>
				<path d="M224.56,236.61c-0.79-5.13-1.48-10.98-0.16-16.06c0.51-1.98,1.29-4.69,3.16-5.81c1.4-0.83,3.05-0.71,3.94,0.71
					c0.08,0.12-0.07,0.25-0.19,0.19c-4.22-2.32-5.75,6.89-6.21,9.42c-0.71,3.84-0.42,7.66-0.43,11.54
					C224.67,236.66,224.57,236.67,224.56,236.61L224.56,236.61z"/>
			</g>
			<g>
				<path d="M231.45,215.05c0.12,2.15-3.01,7.6,1.28,7.37c3.08-0.17,5.15-3.43,6.47-5.85c3.15-5.79,4.48-12.65,6.6-18.86
					c2.22-6.47,4.67-12.86,7.34-19.15c1.37-3.24,2.81-6.45,4.3-9.64c1.42-3.03,2.7-6.45,4.61-9.21c1.11-1.61,3.3-2.99,5.22-1.77
					c2.18,1.39,0.86,4.19-0.47,5.62c-0.16,0.18-0.5-0.01-0.42-0.24c0.49-1.36,1.84-5.68-1.55-4.6c-1.83,0.58-2.67,2.94-3.46,4.51
					c-1.57,3.15-3.09,6.32-4.55,9.53c-2.95,6.48-5.65,13.06-8.1,19.74c-2.27,6.17-4.11,12.46-6.21,18.69
					c-1.42,4.19-3.58,10.05-8.11,11.76c-1.63,0.61-3.62,0.56-4.52-1.16c-1.11-2.1,0.63-4.78,1.25-6.78
					C231.19,214.82,231.44,214.86,231.45,215.05L231.45,215.05z"/>
			</g>
			<g>
				<path d="M224.85,237.14c5.68-5.13,13.15-8.22,16.7-15.39c3.14-6.35,3.8-13.77,5.92-20.48c2.26-7.14,5.36-13.97,8.92-20.56
					c1.86-3.44,3.83-6.82,5.8-10.19c1.84-3.17,3.47-6.94,5.97-9.63c0.17-0.18,0.5,0.01,0.42,0.25c-0.9,2.84-2.8,5.44-4.3,8
					c-1.55,2.66-3.1,5.32-4.64,7.99c-3.18,5.53-6.28,11.1-8.68,17.02c-2.23,5.5-3.89,11.18-5.22,16.96
					c-1.14,4.93-2.32,10.08-5.39,14.22c-1.65,2.23-3.82,3.99-6.05,5.61c-3.02,2.19-6.15,4.48-9.45,6.23
					C224.85,237.16,224.84,237.15,224.85,237.14L224.85,237.14z"/>
			</g>
			<g>
				<path d="M228.69,221.46c-0.23,1.55,0.27,3.19,1.59,4.12c0.97,0.68,2.09,0.71,3.22,0.82c0.19,0.02,0.29,0.28,0.1,0.38
					c-1.33,0.7-3,0.18-4.06-0.81c-1.26-1.17-1.59-2.96-1.02-4.55C228.56,221.3,228.71,221.35,228.69,221.46L228.69,221.46z"/>
			</g>
			<g>
				<path d="M235.7,225.29c1.43-1.24,2.47-2.73,3.35-4.39c0.02-0.04,0.09-0.01,0.08,0.03c-0.68,1.75-1.91,3.25-3.36,4.43
					C235.72,225.4,235.66,225.33,235.7,225.29L235.7,225.29z"/>
			</g>
			<g>
				<path d="M261.41,161.01c-1.08-2.64-0.52-5.27,0.4-7.88c1.12-3.19,2.43-6.31,3.66-9.46c2.55-6.55,5.11-13.1,7.66-19.65
					c4.98-12.78,9.94-25.57,15.53-38.1c11.09-24.87,25.39-47.96,39.96-70.89c2.21-3.47,7.32-10.53,12.13-6.47
					c1.98,1.67,2.28,4.56,2.3,6.98c0.03,3.12-0.73,6.21-1.98,9.05c-0.05,0.12-0.23,0.03-0.2-0.09c0.96-3.6,3.29-16.02-3.29-15.85
					c-3.2,0.09-5.45,3.12-7.04,5.53c-1.74,2.63-3.38,5.32-5.07,7.98c-6.45,10.19-12.82,20.44-18.81,30.91
					c-12.37,21.67-21.87,44.54-30.93,67.75c-2.6,6.65-5.19,13.31-7.79,19.96c-1.3,3.33-2.6,6.67-3.9,10
					c-1.24,3.16-2.85,6.54-1.79,9.98C262.42,161.34,261.61,161.51,261.41,161.01L261.41,161.01z"/>
			</g>
			<g>
				<path d="M267.99,162.85c5.18-1.7,7.96-6.48,10.75-10.82c2.93-4.56,5.77-9.18,8.55-13.83c5.56-9.31,10.84-18.79,15.94-28.35
					c5.12-9.58,10.08-19.25,15.04-28.91c5.1-9.95,9.2-20.19,12.88-30.74c2.02-5.77,3.93-11.58,5.76-17.42
					c1.85-5.91,3.21-12.15,5.55-17.88c0.08-0.2,0.46-0.21,0.43,0.06c-0.74,5.41-2.6,10.78-4.15,16c-1.64,5.5-3.38,10.97-5.22,16.41
					c-3.6,10.64-7.41,21.2-12.46,31.24c-10.09,20.05-20.4,40.11-31.98,59.35c-3.24,5.38-6.6,10.69-10.11,15.91
					c-2.66,3.97-5.86,8.44-10.89,9.32C267.86,163.23,267.77,162.92,267.99,162.85L267.99,162.85z"/>
			</g>
			<g>
				<path d="M267.99,163.35c0.18,0.01,0.35,0.03,0.53,0.04c0.16,0.01,0.33,0.01,0.49,0.07c0.11,0.05,0.13,0.21,0,0.25
					c-0.16,0.04-0.32,0.02-0.49,0.01c-0.18-0.01-0.35-0.02-0.53-0.03C267.76,163.68,267.77,163.34,267.99,163.35L267.99,163.35z"/>
			</g>
			<g>
				<path d="M264.84,155.22c2.1-1.05,4.86,0.19,5.31,2.51c0.03,0.14-0.16,0.19-0.21,0.06c-0.77-1.98-3.02-3.14-5.05-2.46
					C264.82,155.35,264.78,155.25,264.84,155.22L264.84,155.22z"/>
			</g>
			<g>
				<path d="M273.96,154.97c4.42-6.05,8.51-12.34,12.66-18.58c0.08-0.11,0.25-0.01,0.18,0.11c-3.64,6.59-7.93,12.69-12.51,18.67
					C274.15,155.35,273.81,155.17,273.96,154.97L273.96,154.97z"/>
			</g>
			<g>
				<path d="M297.18,117.62c7.07-15.37,13.86-30.93,21.42-46.07c0.04-0.09,0.16-0.01,0.13,0.07c-6.72,15.53-14.24,30.74-21.44,46.06
					C297.25,117.75,297.15,117.69,297.18,117.62L297.18,117.62z"/>
			</g>
			<g>
				<path d="M326.21,55.11c2.88-6.98,5.43-14.11,7.6-21.35c1.07-3.56,2.06-7.15,2.96-10.76c0.9-3.61,1.88-7.56-1-10.55
					c-0.16-0.17,0.04-0.44,0.25-0.33c2.54,1.44,2.63,4.7,2.27,7.28c-0.55,3.97-1.92,7.93-3.1,11.75c-2.5,8.16-5.48,16.16-8.88,24
					C326.29,55.22,326.18,55.17,326.21,55.11L326.21,55.11z"/>
			</g>
		</g>
	</g>
	<path class="st3" d="M269.09,185.72c0,0,40.61-3.29,40.57,13.44c-0.01,5.72-9.37,10.18-20.44,9.5
		c-7.87-0.48-24.71-5.23-42.79-10.68c-18.08-5.45-24.82,3.69-22.41,10.57c2.48,7.1,19.05,21.05,34.86,16.6c0,0,9.53-0.93,14.46-7.79
		"/>
	<g>
		<clipPath id="SVGID_2_">
			<circle id="SVGID_1_" cx="229.52" cy="215.03" r="5.2" style="overflow:visible;"/>
		</clipPath>
		<g class="st4">
			<path class="st1" d="M228.26,214.73c0.23-0.29,3.04-0.26,3.05,0.9c0.02,1.97-2.69,5.79-0.66,7.12c0.37,0.24,0.8,0.38,1.23,0.44
				c2.02,0.31,4.05-0.83,5.35-2.41c2.34-2.83,4.16-7.27,5.21-10.76c1.81-6.04,3.49-12.11,5.76-17.98c2.05-5.3,4.89-10.02,6.82-15.36
				c2.07-5.72,3.87-11.49,7.32-16.5c0.83-1.2,1.9-2.54,3.37-2.51c1.18,0.02,2.23,1.14,2.17,2.33c-0.03,0.59-0.29,1.15-0.55,1.69
				c-4.07,8.44-8.77,16.3-13.14,24.59c-3.58,6.78-6.16,14.47-7.89,21.94c-1.21,5.23-2.04,10.71-4.95,15.22
				c-2.08,3.22-5.03,5.88-8.12,8.12c-2.2,1.6-6.15,5.21-8.82,5.56c-0.73-3.17-0.27-7.87-0.03-11.14
				C224.64,222.49,226.05,217.56,228.26,214.73z"/>
			<path class="st2" d="M267.07,158.83c-0.2-0.29-0.49-0.47-0.9-0.48c-1.55-0.03-3.11,0.62-4.18,1.74c0.06-0.06-0.4-3.4-0.28-3.94
				c0.25-1.17,1-2.33,1.44-3.45c3.68-9.42,7.36-18.84,11.04-28.26c3.34-8.56,6.69-17.12,10.16-25.63
				c4.02-9.89,7.77-20.3,12.84-29.71c4.27-7.93,8.82-15.53,13.52-23.28c3.43-5.66,6.17-11.7,9.39-17.47
				c3.27-5.86,7.61-10.12,11.53-15.37c1.91-2.56,5.75-5.92,9.06-3.41c2.31,1.76,1.98,5.28,1.31,8.11
				c-2.74,11.45-7.3,22.37-10.76,33.62c-1.61,5.24-2.98,10.56-5.14,15.6c-1.39,3.26-3.1,6.36-4.81,9.47
				c-13.87,25.21-26.79,50.76-41.86,75.37c-2.97,4.85-6.4,10.22-12.2,11.67C267.19,163.42,267.96,160.1,267.07,158.83z"/>
			<g>
				<g>
					<path d="M224.56,236.61c-0.79-5.13-1.48-10.98-0.16-16.06c0.51-1.98,1.29-4.69,3.16-5.81c1.4-0.83,3.05-0.71,3.94,0.71
						c0.08,0.12-0.07,0.25-0.19,0.19c-4.22-2.32-5.75,6.89-6.21,9.42c-0.71,3.84-0.42,7.66-0.43,11.54
						C224.67,236.66,224.57,236.67,224.56,236.61L224.56,236.61z"/>
				</g>
				<g>
					<path d="M231.45,215.05c0.12,2.15-3.01,7.6,1.28,7.37c3.08-0.17,5.15-3.43,6.47-5.85c3.15-5.79,4.48-12.65,6.6-18.86
						c2.22-6.47,4.67-12.86,7.34-19.15c1.37-3.24,2.81-6.45,4.3-9.64c1.42-3.03,2.7-6.45,4.61-9.21c1.11-1.61,3.3-2.99,5.22-1.77
						c2.18,1.39,0.86,4.19-0.47,5.62c-0.16,0.18-0.5-0.01-0.42-0.24c0.49-1.36,1.84-5.68-1.55-4.6c-1.83,0.58-2.67,2.94-3.46,4.51
						c-1.57,3.15-3.09,6.32-4.55,9.53c-2.95,6.48-5.65,13.06-8.1,19.74c-2.27,6.17-4.11,12.46-6.21,18.69
						c-1.42,4.19-3.58,10.05-8.11,11.76c-1.63,0.61-3.62,0.56-4.52-1.16c-1.11-2.1,0.63-4.78,1.25-6.78
						C231.19,214.82,231.44,214.86,231.45,215.05L231.45,215.05z"/>
				</g>
				<g>
					<path d="M224.85,237.14c5.68-5.13,13.15-8.22,16.7-15.39c3.14-6.35,3.8-13.77,5.92-20.48c2.26-7.14,5.36-13.97,8.92-20.56
						c1.86-3.44,3.83-6.82,5.8-10.19c1.84-3.17,3.47-6.94,5.97-9.63c0.17-0.18,0.5,0.01,0.42,0.25c-0.9,2.84-2.8,5.44-4.3,8
						c-1.55,2.66-3.1,5.32-4.64,7.99c-3.18,5.53-6.28,11.1-8.68,17.02c-2.23,5.5-3.89,11.18-5.22,16.96
						c-1.14,4.93-2.32,10.08-5.39,14.22c-1.65,2.23-3.82,3.99-6.05,5.61c-3.02,2.19-6.15,4.48-9.45,6.23
						C224.85,237.16,224.84,237.15,224.85,237.14L224.85,237.14z"/>
				</g>
				<g>
					<path d="M228.69,221.46c-0.23,1.55,0.27,3.19,1.59,4.12c0.97,0.68,2.09,0.71,3.22,0.82c0.19,0.02,0.29,0.28,0.1,0.38
						c-1.33,0.7-3,0.18-4.06-0.81c-1.26-1.17-1.59-2.96-1.02-4.55C228.56,221.3,228.71,221.35,228.69,221.46L228.69,221.46z"/>
				</g>
				<g>
					<path d="M235.7,225.29c1.43-1.24,2.47-2.73,3.35-4.39c0.02-0.04,0.09-0.01,0.08,0.03c-0.68,1.75-1.91,3.25-3.36,4.43
						C235.72,225.4,235.66,225.33,235.7,225.29L235.7,225.29z"/>
				</g>
				<g>
					<path d="M261.41,161.01c-1.08-2.64-0.52-5.27,0.4-7.88c1.12-3.19,2.43-6.31,3.66-9.46c2.55-6.55,5.11-13.1,7.66-19.65
						c4.98-12.78,9.94-25.57,15.53-38.1c11.09-24.87,25.39-47.96,39.96-70.89c2.21-3.47,7.32-10.53,12.13-6.47
						c1.98,1.67,2.28,4.56,2.3,6.98c0.03,3.12-0.73,6.21-1.98,9.05c-0.05,0.12-0.23,0.03-0.2-0.09c0.96-3.6,3.29-16.02-3.29-15.85
						c-3.2,0.09-5.45,3.12-7.04,5.53c-1.74,2.63-3.38,5.32-5.07,7.98c-6.45,10.19-12.82,20.44-18.81,30.91
						c-12.37,21.67-21.87,44.54-30.93,67.75c-2.6,6.65-5.19,13.31-7.79,19.96c-1.3,3.33-2.6,6.67-3.9,10
						c-1.24,3.16-2.85,6.54-1.79,9.98C262.42,161.34,261.61,161.51,261.41,161.01L261.41,161.01z"/>
				</g>
				<g>
					<path d="M267.99,162.85c5.18-1.7,7.96-6.48,10.75-10.82c2.93-4.56,5.77-9.18,8.55-13.83c5.56-9.31,10.84-18.79,15.94-28.35
						c5.12-9.58,10.08-19.25,15.04-28.91c5.1-9.95,9.2-20.19,12.88-30.74c2.02-5.77,3.93-11.58,5.76-17.42
						c1.85-5.91,3.21-12.15,5.55-17.88c0.08-0.2,0.46-0.21,0.43,0.06c-0.74,5.41-2.6,10.78-4.15,16c-1.64,5.5-3.38,10.97-5.22,16.41
						c-3.6,10.64-7.41,21.2-12.46,31.24c-10.09,20.05-20.4,40.11-31.98,59.35c-3.24,5.38-6.6,10.69-10.11,15.91
						c-2.66,3.97-5.86,8.44-10.89,9.32C267.86,163.23,267.77,162.92,267.99,162.85L267.99,162.85z"/>
				</g>
				<g>
					<path d="M267.99,163.35c0.18,0.01,0.35,0.03,0.53,0.04c0.16,0.01,0.33,0.01,0.49,0.07c0.11,0.05,0.13,0.21,0,0.25
						c-0.16,0.04-0.32,0.02-0.49,0.01c-0.18-0.01-0.35-0.02-0.53-0.03C267.76,163.68,267.77,163.34,267.99,163.35L267.99,163.35z"/>
				</g>
				<g>
					<path d="M264.84,155.22c2.1-1.05,4.86,0.19,5.31,2.51c0.03,0.14-0.16,0.19-0.21,0.06c-0.77-1.98-3.02-3.14-5.05-2.46
						C264.82,155.35,264.78,155.25,264.84,155.22L264.84,155.22z"/>
				</g>
				<g>
					<path d="M273.96,154.97c4.42-6.05,8.51-12.34,12.66-18.58c0.08-0.11,0.25-0.01,0.18,0.11c-3.64,6.59-7.93,12.69-12.51,18.67
						C274.15,155.35,273.81,155.17,273.96,154.97L273.96,154.97z"/>
				</g>
				<g>
					<path d="M297.18,117.62c7.07-15.37,13.86-30.93,21.42-46.07c0.04-0.09,0.16-0.01,0.13,0.07
						c-6.72,15.53-14.24,30.74-21.44,46.06C297.25,117.75,297.15,117.69,297.18,117.62L297.18,117.62z"/>
				</g>
				<g>
					<path d="M326.21,55.11c2.88-6.98,5.43-14.11,7.6-21.35c1.07-3.56,2.06-7.15,2.96-10.76c0.9-3.61,1.88-7.56-1-10.55
						c-0.16-0.17,0.04-0.44,0.25-0.33c2.54,1.44,2.63,4.7,2.27,7.28c-0.55,3.97-1.92,7.93-3.1,11.75c-2.5,8.16-5.48,16.16-8.88,24
						C326.29,55.22,326.18,55.17,326.21,55.11L326.21,55.11z"/>
				</g>
			</g>
		</g>
	</g>
</g>
</svg>
